<svg version="1.1" xmlns="http://www.w3.org/2000/svg" viewBox="0 0 1057 586" width="3171" height="1758">
  <!-- svg-source:excalidraw -->
  
  <defs>
    <style class="style-fonts">
      @font-face {
        font-family: "Virgil";
        src: url("https://excalidraw.com/Virgil.woff2");
      }
      @font-face {
        font-family: "Cascadia";
        src: url("https://excalidraw.com/Cascadia.woff2");
      }
    </style>
    
  </defs>
  <rect x="0" y="0" width="1057" height="586" fill="#000"></rect><g stroke-linecap="round" transform="translate(444 116) rotate(0 102 21.5)"><path d="M0 0 C47.54 0, 95.08 0, 204 0 M0 0 C69.28 0, 138.57 0, 204 0 M204 0 C204 11.77, 204 23.54, 204 43 M204 0 C204 11.69, 204 23.38, 204 43 M204 43 C147.6 43, 91.19 43, 0 43 M204 43 C131.47 43, 58.94 43, 0 43 M0 43 C0 28.31, 0 13.62, 0 0 M0 43 C0 26.27, 0 9.54, 0 0" stroke="#fff" stroke-width="1" fill="none"></path></g><g transform="translate(487.4166679382324 125.5) rotate(0 58.58333206176758 12)"><text x="58.58333206176758" y="0" font-family="Cascadia, Segoe UI Emoji" font-size="20px" fill="#fff" text-anchor="middle" style="white-space: pre;" direction="ltr" dominant-baseline="text-before-edge">Cart Store</text></g><g stroke-linecap="round" transform="translate(684 336) rotate(0 98 45.5)"><path d="M0 0 C66.97 0, 133.94 0, 196 0 M0 0 C62.74 0, 125.49 0, 196 0 M196 0 C196 34.34, 196 68.68, 196 91 M196 0 C196 25.62, 196 51.23, 196 91 M196 91 C117.65 91, 39.29 91, 0 91 M196 91 C142.93 91, 89.85 91, 0 91 M0 91 C0 67.06, 0 43.12, 0 0 M0 91 C0 61.88, 0 32.75, 0 0" stroke="#fff" stroke-width="1" fill="none"></path></g><g transform="translate(699.9833297729492 369.5) rotate(0 82.01667022705078 12)"><text x="82.01667022705078" y="0" font-family="Cascadia, Segoe UI Emoji" font-size="20px" fill="#fff" text-anchor="middle" style="white-space: pre;" direction="ltr" dominant-baseline="text-before-edge">Cart Component</text></g><g stroke-linecap="round" transform="translate(229 325.5) rotate(0 98 45.5)"><path d="M0 0 C53.22 0, 106.43 0, 196 0 M0 0 C75.09 0, 150.18 0, 196 0 M196 0 C196 20.91, 196 41.82, 196 91 M196 0 C196 28.59, 196 57.19, 196 91 M196 91 C144.06 91, 92.12 91, 0 91 M196 91 C142.31 91, 88.63 91, 0 91 M0 91 C0 62.05, 0 33.09, 0 0 M0 91 C0 57.32, 0 23.65, 0 0" stroke="#fff" stroke-width="1" fill="none"></path></g><g transform="translate(274.2750015258789 347) rotate(0 52.724998474121094 24)"><text x="52.724998474121094" y="0" font-family="Cascadia, Segoe UI Emoji" font-size="20px" fill="#fff" text-anchor="middle" style="white-space: pre;" direction="ltr" dominant-baseline="text-before-edge">Products </text><text x="52.724998474121094" y="24" font-family="Cascadia, Segoe UI Emoji" font-size="20px" fill="#fff" text-anchor="middle" style="white-space: pre;" direction="ltr" dominant-baseline="text-before-edge">Component</text></g><g transform="translate(584 273) rotate(0 58.58333206176758 24)"><text x="58.58333206176758" y="0" font-family="Cascadia, Segoe UI Emoji" font-size="20px" fill="#fff" text-anchor="middle" style="white-space: pre;" direction="ltr" dominant-baseline="text-before-edge">update</text><text x="58.58333206176758" y="24" font-family="Cascadia, Segoe UI Emoji" font-size="20px" fill="#fff" text-anchor="middle" style="white-space: pre;" direction="ltr" dominant-baseline="text-before-edge">quantities</text></g><g transform="translate(791 300) rotate(0 70.30000305175781 12)"><text x="0" y="0" font-family="Cascadia, Segoe UI Emoji" font-size="20px" fill="#fff" text-anchor="start" style="white-space: pre;" direction="ltr" dominant-baseline="text-before-edge">get products</text></g><g transform="translate(352 167) rotate(0 70.30000305175781 12)"><text x="0" y="0" font-family="Cascadia, Segoe UI Emoji" font-size="20px" fill="#fff" text-anchor="start" style="white-space: pre;" direction="ltr" dominant-baseline="text-before-edge">add products</text></g><g transform="translate(108.69999694824219 262) rotate(0 58.58333206176758 24)"><text x="0" y="0" font-family="Cascadia, Segoe UI Emoji" font-size="20px" fill="#fff" text-anchor="start" style="white-space: pre;" direction="ltr" dominant-baseline="text-before-edge">get </text><text x="0" y="24" font-family="Cascadia, Segoe UI Emoji" font-size="20px" fill="#fff" text-anchor="start" style="white-space: pre;" direction="ltr" dominant-baseline="text-before-edge">quantities</text></g><g stroke-linecap="round" transform="translate(10 10) rotate(0 518.5 283)"><path d="M0 0 C212.93 0, 425.86 0, 1037 0 M0 0 C301.07 0, 602.14 0, 1037 0 M1037 0 C1037 118.12, 1037 236.24, 1037 566 M1037 0 C1037 158.54, 1037 317.09, 1037 566 M1037 566 C643.69 566, 250.39 566, 0 566 M1037 566 C767.98 566, 498.96 566, 0 566 M0 566 C0 389.42, 0 212.84, 0 0 M0 566 C0 413.36, 0 260.72, 0 0" stroke="#1e1e1e" stroke-width="1" fill="none"></path></g><g stroke-linecap="round"><g transform="translate(767.8554708878883 329) rotate(0 -52.92773544394413 -102.38286916840843)"><path d="M0 0 C-2.64 -29.33, 1.79 -141.87, -15.86 -176 C-33.5 -210.13, -90.86 -199.97, -105.86 -204.77 M0 0 C-2.64 -29.33, 1.79 -141.87, -15.86 -176 C-33.5 -210.13, -90.86 -199.97, -105.86 -204.77" stroke="#fff" stroke-width="1" fill="none"></path></g><g transform="translate(767.8554708878883 329) rotate(0 -52.92773544394413 -102.38286916840843)"><path d="M0 0 L-6.88 -13.33 L5.79 -13.84 L0 0" stroke="none" stroke-width="0" fill="#fff" fill-rule="evenodd"></path><path d="M0 0 C-2.26 -4.37, -4.51 -8.74, -6.88 -13.33 M0 0 C-2.44 -4.73, -4.88 -9.47, -6.88 -13.33 M-6.88 -13.33 C-4.08 -13.44, -1.28 -13.55, 5.79 -13.84 M-6.88 -13.33 C-3.39 -13.47, 0.1 -13.61, 5.79 -13.84 M5.79 -13.84 C4.25 -10.15, 2.7 -6.46, 0 0 M5.79 -13.84 C4.48 -10.7, 3.16 -7.56, 0 0 M0 0 C0 0, 0 0, 0 0 M0 0 C0 0, 0 0, 0 0" stroke="#fff" stroke-width="1" fill="none"></path></g></g><mask></mask><g stroke-linecap="round"><g transform="translate(716.0159872370352 331) rotate(0 -28.007993618517617 -92)"><path d="M0 0 C-2.34 -27.17, -4.68 -132.33, -14.02 -163 C-23.35 -193.67, -49.02 -180.5, -56.02 -184 M0 0 C-2.34 -27.17, -4.68 -132.33, -14.02 -163 C-23.35 -193.67, -49.02 -180.5, -56.02 -184" stroke="#fff" stroke-width="1" fill="none"></path></g><g transform="translate(716.0159872370352 331) rotate(0 -28.007993618517617 -92)"><path d="M-56.02 -184 L-42.25 -189.97 L-42.6 -177.29 L-56.02 -184" stroke="none" stroke-width="0" fill="#fff" fill-rule="evenodd"></path><path d="M-56.02 -184 C-52.05 -185.72, -48.09 -187.44, -42.25 -189.97 M-56.02 -184 C-51.6 -185.91, -47.19 -187.83, -42.25 -189.97 M-42.25 -189.97 C-42.37 -185.85, -42.48 -181.73, -42.6 -177.29 M-42.25 -189.97 C-42.34 -186.71, -42.43 -183.46, -42.6 -177.29 M-42.6 -177.29 C-47.62 -179.8, -52.65 -182.32, -56.02 -184 M-42.6 -177.29 C-46.23 -179.11, -49.85 -180.92, -56.02 -184 M-56.02 -184 C-56.02 -184, -56.02 -184, -56.02 -184 M-56.02 -184 C-56.02 -184, -56.02 -184, -56.02 -184" stroke="#fff" stroke-width="1" fill="none"></path></g></g><mask></mask><g stroke-linecap="round"><g transform="translate(322 322) rotate(0 53.35254546108621 -91.10822318240571)"><path d="M0 0 C0.67 -27.17, -14.67 -132.83, 4 -163 C22.67 -193.17, 94 -178, 112 -181 M0 0 C0.67 -27.17, -14.67 -132.83, 4 -163 C22.67 -193.17, 94 -178, 112 -181" stroke="#fff" stroke-width="1" fill="none"></path></g><g transform="translate(322 322) rotate(0 53.35254546108621 -91.10822318240571)"><path d="M112 -181 L98.3 -174.9 L98.52 -187.58 L112 -181" stroke="none" stroke-width="0" fill="#fff" fill-rule="evenodd"></path><path d="M112 -181 C109.01 -179.67, 106.02 -178.34, 98.3 -174.9 M112 -181 C108.5 -179.44, 105.01 -177.89, 98.3 -174.9 M98.3 -174.9 C98.35 -178.21, 98.41 -181.53, 98.52 -187.58 M98.3 -174.9 C98.35 -178.08, 98.41 -181.25, 98.52 -187.58 M98.52 -187.58 C102.78 -185.5, 107.05 -183.42, 112 -181 M98.52 -187.58 C101.32 -186.21, 104.12 -184.84, 112 -181 M112 -181 C112 -181, 112 -181, 112 -181 M112 -181 C112 -181, 112 -181, 112 -181" stroke="#fff" stroke-width="1" fill="none"></path></g></g><mask></mask><g stroke-linecap="round"><g transform="translate(437 120) rotate(0 -90.84614006160103 96.74100735346292)"><path d="M0 0 C-27.17 3.17, -133 -13.5, -163 19 C-193 51.5, -177.17 165.67, -180 195 M0 0 C-27.17 3.17, -133 -13.5, -163 19 C-193 51.5, -177.17 165.67, -180 195" stroke="#fff" stroke-width="1" fill="none"></path></g><g transform="translate(437 120) rotate(0 -90.84614006160103 96.74100735346292)"><path d="M-180 195 L-186.57 181.51 L-173.89 181.3 L-180 195" stroke="none" stroke-width="0" fill="#fff" fill-rule="evenodd"></path><path d="M-180 195 C-181.55 191.81, -183.1 188.63, -186.57 181.51 M-180 195 C-181.44 192.05, -182.87 189.1, -186.57 181.51 M-186.57 181.51 C-182.18 181.44, -177.79 181.37, -173.89 181.3 M-186.57 181.51 C-182.22 181.44, -177.88 181.37, -173.89 181.3 M-173.89 181.3 C-176.04 186.11, -178.18 190.93, -180 195 M-173.89 181.3 C-175.58 185.1, -177.28 188.9, -180 195 M-180 195 C-180 195, -180 195, -180 195 M-180 195 C-180 195, -180 195, -180 195" stroke="#fff" stroke-width="1" fill="none"></path></g></g><mask></mask></svg>